<svg width="1377" height="337" viewBox="0 0 1377 337" fill="none" xmlns="http://www.w3.org/2000/svg">
<path d="M34.469 187.163L129.625 261.633C148.656 276.529 158.172 283.977 169.148 286.767C178.805 289.222 189.195 289.222 198.851 286.767C209.828 283.977 219.344 276.529 238.375 261.633L333.531 187.163L333.671 187.069L333.742 187.019L333.859 186.927C352.656 172.188 362.101 164.774 365.648 156.231C367.218 152.454 367.999 148.531 367.999 144.608V192.608C367.999 196.531 367.218 200.454 365.648 204.231C362.085 212.81 352.578 220.252 333.601 235.116L333.531 235.163L238.375 309.633C219.344 324.529 209.828 331.976 198.851 334.767C189.195 337.222 178.805 337.222 169.148 334.767C158.172 331.976 148.656 324.529 129.625 309.633L34.469 235.163L34.3987 235.116C15.4222 220.252 5.91442 212.81 2.35192 204.231C0.781616 200.454 0.000367586 196.531 0.000367586 192.607V144.608C0.000367586 148.531 0.781616 152.454 2.35192 156.231C5.89879 164.774 15.3441 172.188 34.1409 186.927L34.2581 187.019L34.3284 187.069L34.469 187.163Z" fill="#DBDBDB"/>
<path d="M34.469 187.163C15.4359 172.267 5.91752 164.819 2.35192 156.231C-0.784465 148.677 -0.78373 140.54 2.35266 132.985C5.91826 124.397 15.4348 116.949 34.4679 102.054L129.625 27.5833C148.658 12.6878 158.174 5.24003 169.148 2.44957C178.801 -0.0049988 189.199 -0.0049988 198.852 2.44957C209.825 5.24003 219.342 12.6878 238.375 27.5833L333.532 102.054C352.565 116.949 362.082 124.397 365.647 132.985C368.784 140.54 368.784 148.677 365.648 156.231C362.082 164.819 352.564 172.267 333.531 187.163L238.375 261.633C219.344 276.529 209.828 283.977 198.851 286.767C189.195 289.222 178.805 289.222 169.148 286.767C158.172 283.977 148.656 276.529 129.625 261.633L34.469 187.163Z" fill="white"/>
<path d="M143.218 94.9613C133.702 87.5136 128.944 83.7897 127.161 79.4956C125.593 75.7184 125.593 71.6496 127.161 67.8725C128.944 63.5784 133.702 59.8545 143.218 52.4067L156.812 41.7681C166.329 34.3204 171.087 30.5965 176.574 29.2013C181.4 27.974 186.599 27.974 191.426 29.2013C196.913 30.5965 201.671 34.3204 211.188 41.7681L224.781 52.4067C234.298 59.8545 239.056 63.5784 240.839 67.8725C242.407 71.6496 242.407 75.7184 240.839 79.4956C239.056 83.7897 234.298 87.5136 224.781 94.9613L211.188 105.6C201.671 113.048 196.913 116.772 191.426 118.167C186.599 119.394 181.4 119.394 176.574 118.167C171.087 116.772 166.329 113.048 156.812 105.6L143.218 94.9613Z" fill="#FF8686"/>
<path d="M233.844 165.886C224.327 158.438 219.569 154.714 217.786 150.42C216.218 146.643 216.218 142.574 217.786 138.797C219.569 134.503 224.327 130.779 233.844 123.331L247.438 112.692C256.954 105.245 261.713 101.521 267.199 100.126C272.026 98.8982 277.225 98.8982 282.051 100.126C287.538 101.521 292.296 105.245 301.813 112.692L315.407 123.331C324.923 130.779 329.682 134.503 331.464 138.797C333.033 142.574 333.033 146.643 331.464 150.42C329.682 154.714 324.923 158.438 315.407 165.886L301.813 176.524C292.296 183.972 287.538 187.696 282.051 189.091C277.225 190.318 272.026 190.318 267.199 189.091C261.713 187.696 256.954 183.972 247.438 176.524L233.844 165.886Z" fill="#5AFF88"/>
<path d="M52.593 165.886C43.0765 158.438 38.3182 154.714 36.5354 150.42C34.9672 146.643 34.9672 142.574 36.5354 138.797C38.3182 134.503 43.0765 130.779 52.593 123.331L66.1868 112.692C75.7034 105.245 80.4617 101.521 85.9486 100.126C90.775 98.8982 95.974 98.8982 100.8 100.126C106.287 101.521 111.046 105.245 120.562 112.692L224.781 194.255C234.298 201.703 239.056 205.427 240.839 209.721C242.407 213.498 242.407 217.567 240.839 221.344C239.056 225.638 234.298 229.362 224.781 236.81L211.188 247.448C201.671 254.896 196.913 258.62 191.426 260.015C186.599 261.243 181.4 261.243 176.574 260.015C171.087 258.62 166.329 254.896 156.812 247.448L52.593 165.886Z" fill="#768CFF"/>
<path d="M488.227 275V42.2727H581.408C598.53 42.2727 612.81 44.8106 624.249 49.8863C635.689 54.9621 644.287 62.0076 650.045 71.0227C655.802 79.9621 658.681 90.2651 658.681 101.932C658.681 111.023 656.863 119.015 653.227 125.909C649.59 132.727 644.59 138.333 638.227 142.727C631.939 147.045 624.742 150.114 616.636 151.932V154.205C625.499 154.583 633.795 157.083 641.522 161.705C649.325 166.326 655.651 172.803 660.499 181.136C665.348 189.394 667.772 199.242 667.772 210.682C667.772 223.03 664.704 234.053 658.567 243.75C652.507 253.371 643.53 260.985 631.636 266.591C619.742 272.197 605.083 275 587.658 275H488.227ZM537.431 234.773H577.545C591.257 234.773 601.257 232.159 607.545 226.932C613.833 221.629 616.977 214.583 616.977 205.795C616.977 199.356 615.424 193.674 612.318 188.75C609.211 183.826 604.78 179.962 599.022 177.159C593.34 174.356 586.56 172.955 578.681 172.955H537.431V234.773ZM537.431 139.659H573.908C580.651 139.659 586.636 138.485 591.863 136.136C597.166 133.712 601.333 130.303 604.363 125.909C607.469 121.515 609.022 116.25 609.022 110.114C609.022 101.705 606.03 94.9242 600.045 89.7727C594.136 84.6212 585.727 82.0454 574.818 82.0454H537.431V139.659Z" fill="black"/>
<path d="M778.425 278.409C760.471 278.409 745.016 274.773 732.062 267.5C719.183 260.152 709.259 249.773 702.289 236.364C695.319 222.879 691.834 206.932 691.834 188.523C691.834 170.568 695.319 154.811 702.289 141.25C709.259 127.689 719.069 117.121 731.721 109.545C744.448 101.97 759.372 98.1818 776.494 98.1818C788.009 98.1818 798.728 100.038 808.653 103.75C818.653 107.386 827.365 112.879 834.789 120.227C842.289 127.576 848.122 136.818 852.289 147.955C856.456 159.015 858.539 171.97 858.539 186.818V200.114H740V170.114H812.971C812.971 163.144 811.456 156.97 808.425 151.591C805.395 146.212 801.191 142.008 795.812 138.977C790.509 135.871 784.335 134.318 777.289 134.318C769.941 134.318 763.425 136.023 757.744 139.432C752.138 142.765 747.744 147.273 744.562 152.955C741.644 158.095 740.033 163.89 739.727 170.114C739.957 170.114 740 170.114 740 170.114V200.114H739.675C739.675 208.75 741.266 216.326 744.448 222.614C747.706 228.902 752.289 233.75 758.198 237.159C764.107 240.568 771.115 242.273 779.221 242.273C784.6 242.273 789.524 241.515 793.994 240C798.463 238.485 802.289 236.212 805.471 233.182C808.653 230.152 811.077 226.439 812.744 222.045L857.516 225C855.244 235.758 850.585 245.152 843.539 253.182C836.569 261.136 827.554 267.348 816.494 271.818C805.509 276.212 792.819 278.409 778.425 278.409Z" fill="black"/>
<path d="M938.539 174.091V275H890.13V100.455H936.266V131.25H938.312C942.175 121.098 948.653 113.068 957.744 107.159C966.834 101.174 977.857 98.1818 990.812 98.1818C1002.93 98.1818 1013.5 100.833 1022.52 106.136C1031.53 111.439 1038.54 119.015 1043.54 128.864C1048.54 138.636 1051.04 150.303 1051.04 163.864V275H1002.63V172.5C1002.71 161.818 999.978 153.485 994.448 147.5C988.918 141.439 981.304 138.409 971.607 138.409C965.092 138.409 959.335 139.811 954.335 142.614C949.41 145.417 945.547 149.508 942.744 154.886C940.016 160.189 938.615 166.591 938.539 174.091Z" fill="black"/>
<path d="M1100.78 58.6363H1149.19V100.455H1182V136.818H1149.19V221.364C1149.19 225.833 1149.87 229.318 1151.24 231.818C1152.6 234.242 1154.5 235.947 1156.92 236.932C1159.42 237.917 1162.3 238.409 1165.56 238.409C1167.83 238.409 1170.1 238.22 1172.37 237.841C1174.65 237.386 1176.39 237.045 1177.6 236.818L1185.22 272.841C1182.79 273.598 1179.38 274.47 1174.99 275.455C1170.59 276.515 1165.25 277.159 1158.97 277.386C1147.3 277.841 1137.07 276.288 1128.28 272.727C1119.57 269.167 1112.79 263.636 1107.94 256.136C1103.09 248.636 1100.71 239.167 1100.78 227.727V136.818H1077V100.455H1100.78V58.6363Z" fill="black"/>
<path d="M1290.56 278.409C1272.9 278.409 1257.64 274.659 1244.76 267.159C1231.96 259.583 1222.07 249.053 1215.1 235.568C1208.13 222.008 1204.65 206.288 1204.65 188.409C1204.65 170.379 1208.13 154.621 1215.1 141.136C1222.07 127.576 1231.96 117.045 1244.76 109.545C1257.64 101.97 1272.9 98.1818 1290.56 98.1818C1308.21 98.1818 1323.43 101.97 1336.24 109.545C1349.12 117.045 1359.04 127.576 1366.01 141.136C1372.98 154.621 1376.47 170.379 1376.47 188.409C1376.47 206.288 1372.98 222.008 1366.01 235.568C1359.04 249.053 1349.12 259.583 1336.24 267.159C1323.43 274.659 1308.21 278.409 1290.56 278.409ZM1290.78 240.909C1298.81 240.909 1305.52 238.636 1310.9 234.091C1316.28 229.47 1320.33 223.182 1323.06 215.227C1325.86 207.273 1327.26 198.22 1327.26 188.068C1327.26 177.917 1325.86 168.864 1323.06 160.909C1320.33 152.955 1316.28 146.667 1310.9 142.045C1305.52 137.424 1298.81 135.114 1290.78 135.114C1282.68 135.114 1275.86 137.424 1270.33 142.045C1264.87 146.667 1260.75 152.955 1257.94 160.909C1255.22 168.864 1253.85 177.917 1253.85 188.068C1253.85 198.22 1255.22 207.273 1257.94 215.227C1260.75 223.182 1264.87 229.47 1270.33 234.091C1275.86 238.636 1282.68 240.909 1290.78 240.909Z" fill="black"/>
</svg>
