<?xml version="1.0" encoding="UTF-8" standalone="no"?>
<!DOCTYPE svg PUBLIC "-//W3C//DTD SVG 1.1//EN" "http://www.w3.org/Graphics/SVG/1.1/DTD/svg11.dtd">
<svg width="100%" height="100%" viewBox="0 0 1024 1024" version="1.1" xmlns="http://www.w3.org/2000/svg" xmlns:xlink="http://www.w3.org/1999/xlink" xml:space="preserve" xmlns:serif="http://www.serif.com/" style="fill-rule:evenodd;clip-rule:evenodd;stroke-linejoin:round;stroke-miterlimit:2;">
    <g transform="matrix(0.88976,0,0,0.88976,59.2802,52.1606)">
        <path d="M1043.59,127.722C1043.59,45.741 977.132,-20.718 895.151,-20.718L122.471,-20.718C40.49,-20.718 -25.969,45.741 -25.969,127.722L-25.969,905.904C-25.969,987.884 40.49,1054.34 122.471,1054.34L895.151,1054.34C977.132,1054.34 1043.59,987.884 1043.59,905.904L1043.59,127.722Z" style="fill:rgb(147,149,152);"/>
    </g>
    <g transform="matrix(0.892129,0,0,0.892129,316.833,94.3168)">
        <g transform="matrix(582.626,0,0,582.626,591.485,676.389)">
        </g>
        <text x="170.731px" y="676.389px" style="font-family:'ArialMT', 'Arial', sans-serif;font-size:582.626px;">R</text>
    </g>
    <g transform="matrix(-0.892129,0,0,0.892129,705.175,94.608)">
        <g transform="matrix(582.626,0,0,582.626,591.485,676.389)">
        </g>
        <text x="170.731px" y="676.389px" style="font-family:'ArialMT', 'Arial', sans-serif;font-size:582.626px;">R</text>
    </g>
    <g transform="matrix(0.772434,0,0,0.772434,393.674,161.686)">
        <circle cx="153.186" cy="148.934" r="63.347"/>
    </g>
</svg>
