<svg id="swisscom_logo" xmlns="http://www.w3.org/2000/svg" viewBox="0 0 149.8 175.72"><defs><style>.cls-1{fill:#fff;}.cls-2{fill:none;}</style></defs><title>Swisscom_Lifeform_RGB_White</title><path class="cls-1" d="M63.66,122.67c.33,1,.71,1.91,1.13,2.86-9.2-5.19-13.4-12.09-13.4-17.57a14.3,14.3,0,0,1,2.31-7.55c4,4.27,6.61,8.74,7.49,13A75.15,75.15,0,0,0,63.66,122.67ZM81.41,65.34a207,207,0,0,1,18,13.09,41.64,41.64,0,0,0,.49-6.38c0-13.64-8.45-21.66-16.85-24.52a22.14,22.14,0,0,0-6.75-1.23,14.7,14.7,0,0,0-2.64.22V59.93C75.66,61.46,78.36,63.28,81.41,65.34Zm-10.5-28.4a5.19,5.19,0,0,0-1.48-.1,12.91,12.91,0,0,0-3.69.76,9.39,9.39,0,0,0-2.91,1.64,5.53,5.53,0,0,0-1.92,3.12,5.84,5.84,0,0,0-.12,1.13c0,5.23,5.52,10.53,10.13,14.32Zm32,48.57c-1.28-1.33-2.67-2.67-4.17-4C90.11,73.78,76.9,66,70.91,61.27c-5.17-4.05-10-8.59-11.62-12.94l-1,.77c-2.56,1.88-5.14,3.74-7.63,5.7-1.64,1.3-3.25,2.64-4.79,4.06a45.59,45.59,0,0,0-4.27,4.39c-2.47,3-4.42,6.37-4.7,10.21a11.76,11.76,0,0,0,0,1.88,13.62,13.62,0,0,0,.26,2,15.87,15.87,0,0,0,2.94,6.4,36.68,36.68,0,0,0,5.5,5.65l1,.89c2.35,2,4.74,4,7,6.19a38.52,38.52,0,0,1,8.26,10.87c1.85,4.06,2.43,8.44,3.67,12.68.14.45.28.9.43,1.35.22.67.46,1.34.74,2a13.56,13.56,0,0,0,1.53,2.83V109c-3.84-2.87-2.86-8.87-5-12.76-3-5.38-13.06-7-11.43-14.75,1.12-5.27,8.37-4.37,11.18-8.21,1.35-1.84,1.84-4.1,2.76-6.15a6.4,6.4,0,0,1,5.21-4h0v75.82a56.9,56.9,0,0,0,5.78-.78,64.7,64.7,0,0,0,7.54-1.86,62.31,62.31,0,0,0,6.38-2.38,53.52,53.52,0,0,0,5.45-2.76,43.81,43.81,0,0,0,6.43-4.51,33.14,33.14,0,0,0,5.91-6.52A25.85,25.85,0,0,0,113,106.51a20.18,20.18,0,0,0-.61-5.93,26,26,0,0,0-3.28-7.43,47.28,47.28,0,0,0-6.12-7.63"/><rect class="cls-2" x="-12.96" y="12.96" width="175.72" height="149.8" transform="translate(162.76 12.96) rotate(90)"/></svg>